# Blender v2.83.1 OBJ File: ''
# www.blender.org
mtllib ControlStickLeftThumbstick.mtl
o Cylinder_Cylinder.001
v -0.207103 0.913628 0.180194
v -0.247418 0.913628 0.188638
v -0.207103 0.915923 0.180420
v -0.247418 0.914276 0.188702
v -0.207103 0.918130 0.181089
v -0.247418 0.914899 0.188891
v -0.207103 0.920164 0.182176
v -0.247418 0.915473 0.189197
v -0.207103 0.921947 0.183639
v -0.247418 0.915976 0.189610
v -0.207103 0.923410 0.185422
v -0.247418 0.916389 0.190113
v -0.207103 0.924497 0.187456
v -0.247418 0.916696 0.190687
v -0.207103 0.925166 0.189663
v -0.247418 0.916885 0.191310
v -0.207103 0.925393 0.191958
v -0.247418 0.916948 0.191958
v -0.207103 0.925166 0.194253
v -0.247418 0.916885 0.192606
v -0.207103 0.924497 0.196460
v -0.247418 0.916696 0.193229
v -0.207103 0.923410 0.198494
v -0.247418 0.916389 0.193803
v -0.207103 0.921947 0.200277
v -0.247418 0.915976 0.194306
v -0.207103 0.920164 0.201740
v -0.247418 0.915473 0.194719
v -0.207103 0.918130 0.202827
v -0.247418 0.914899 0.195026
v -0.207103 0.915923 0.203496
v -0.247418 0.914276 0.195214
v -0.207103 0.913628 0.203722
v -0.247418 0.913628 0.195278
v -0.207103 0.911333 0.203496
v -0.247418 0.912980 0.195214
v -0.207103 0.909126 0.202827
v -0.247418 0.912358 0.195026
v -0.207103 0.907092 0.201740
v -0.247418 0.911783 0.194719
v -0.207103 0.905309 0.200277
v -0.247418 0.911280 0.194306
v -0.207103 0.903846 0.198494
v -0.247418 0.910867 0.193803
v -0.207103 0.902759 0.196460
v -0.247418 0.910561 0.193229
v -0.207103 0.902090 0.194253
v -0.247418 0.910372 0.192606
v -0.207103 0.901864 0.191958
v -0.247418 0.910308 0.191958
v -0.207103 0.902090 0.189663
v -0.247418 0.910372 0.191310
v -0.207103 0.902759 0.187456
v -0.247418 0.910561 0.190687
v -0.207103 0.903846 0.185422
v -0.247418 0.910867 0.190113
v -0.207103 0.905309 0.183639
v -0.247418 0.911280 0.189610
v -0.207103 0.907092 0.182176
v -0.247418 0.911783 0.189197
v -0.207103 0.909126 0.181089
v -0.247418 0.912358 0.188891
v -0.207103 0.911333 0.180420
v -0.247418 0.912980 0.188702
v -0.236883 0.913628 0.180194
v -0.236883 0.915923 0.180420
v -0.236883 0.918130 0.181089
v -0.236883 0.920164 0.182176
v -0.236883 0.921947 0.183639
v -0.236883 0.923410 0.185422
v -0.236883 0.924497 0.187456
v -0.236883 0.925166 0.189663
v -0.236883 0.925393 0.191958
v -0.236883 0.925166 0.194253
v -0.236883 0.924497 0.196460
v -0.236883 0.923410 0.198494
v -0.236883 0.921947 0.200277
v -0.236883 0.920164 0.201740
v -0.236883 0.918130 0.202827
v -0.236883 0.915923 0.203496
v -0.236883 0.913628 0.203722
v -0.236883 0.911333 0.203496
v -0.236883 0.909126 0.202827
v -0.236883 0.907092 0.201740
v -0.236883 0.905309 0.200277
v -0.236883 0.903846 0.198494
v -0.236883 0.902759 0.196460
v -0.236883 0.902090 0.194253
v -0.236883 0.901864 0.191958
v -0.236883 0.902090 0.189663
v -0.236883 0.902759 0.187456
v -0.236883 0.903846 0.185422
v -0.236883 0.905309 0.183639
v -0.236883 0.907092 0.182176
v -0.236883 0.909126 0.181089
v -0.236883 0.911333 0.180420
v -0.243508 0.913628 0.182456
v -0.243508 0.915482 0.182638
v -0.243508 0.917264 0.183179
v -0.243508 0.918907 0.184057
v -0.243508 0.920347 0.185239
v -0.243508 0.921529 0.186679
v -0.243508 0.922407 0.188322
v -0.243508 0.922948 0.190104
v -0.243508 0.923130 0.191958
v -0.243508 0.922948 0.193812
v -0.243508 0.922407 0.195594
v -0.243508 0.921529 0.197237
v -0.243508 0.920347 0.198677
v -0.243508 0.918907 0.199859
v -0.243508 0.917264 0.200737
v -0.243508 0.915482 0.201278
v -0.243508 0.913628 0.201460
v -0.243508 0.911774 0.201278
v -0.243508 0.909992 0.200737
v -0.243508 0.908349 0.199859
v -0.243508 0.906909 0.198677
v -0.243508 0.905727 0.197237
v -0.243508 0.904849 0.195594
v -0.243508 0.904308 0.193812
v -0.243508 0.904126 0.191958
v -0.243508 0.904308 0.190104
v -0.243508 0.904849 0.188322
v -0.243508 0.905727 0.186679
v -0.243508 0.906909 0.185239
v -0.243508 0.908349 0.184057
v -0.243508 0.909992 0.183179
v -0.243508 0.911774 0.182638
vt 1.000000 0.923013
vt 1.000000 1.000000
vt 0.968750 1.000000
vt 0.968750 0.923013
vt 0.937500 1.000000
vt 0.937500 0.923013
vt 0.906250 1.000000
vt 0.906250 0.923013
vt 0.875000 1.000000
vt 0.875000 0.923013
vt 0.843750 1.000000
vt 0.843750 0.923013
vt 0.812500 1.000000
vt 0.812500 0.923013
vt 0.781250 1.000000
vt 0.781250 0.923013
vt 0.750000 1.000000
vt 0.750000 0.923013
vt 0.718750 1.000000
vt 0.718750 0.923013
vt 0.687500 1.000000
vt 0.687500 0.923013
vt 0.656250 1.000000
vt 0.656250 0.923013
vt 0.625000 1.000000
vt 0.625000 0.923013
vt 0.593750 1.000000
vt 0.593750 0.923013
vt 0.562500 1.000000
vt 0.562500 0.923013
vt 0.531250 1.000000
vt 0.531250 0.923013
vt 0.500000 1.000000
vt 0.500000 0.923013
vt 0.468750 1.000000
vt 0.468750 0.923013
vt 0.437500 1.000000
vt 0.437500 0.923013
vt 0.406250 1.000000
vt 0.406250 0.923013
vt 0.375000 1.000000
vt 0.375000 0.923013
vt 0.343750 1.000000
vt 0.343750 0.923013
vt 0.312500 1.000000
vt 0.312500 0.923013
vt 0.281250 1.000000
vt 0.281250 0.923013
vt 0.250000 1.000000
vt 0.250000 0.923013
vt 0.218750 1.000000
vt 0.218750 0.923013
vt 0.187500 1.000000
vt 0.187500 0.923013
vt 0.156250 1.000000
vt 0.156250 0.923013
vt 0.125000 1.000000
vt 0.125000 0.923013
vt 0.093750 1.000000
vt 0.093750 0.923013
vt 0.062500 1.000000
vt 0.062500 0.923013
vt 0.296822 0.485388
vt 0.250000 0.490000
vt 0.203179 0.485389
vt 0.158156 0.471731
vt 0.116663 0.449553
vt 0.080295 0.419706
vt 0.050447 0.383337
vt 0.028269 0.341844
vt 0.014612 0.296822
vt 0.010000 0.250000
vt 0.014611 0.203179
vt 0.028269 0.158156
vt 0.050447 0.116663
vt 0.080294 0.080294
vt 0.116663 0.050447
vt 0.158156 0.028269
vt 0.203178 0.014612
vt 0.250000 0.010000
vt 0.296822 0.014612
vt 0.341844 0.028269
vt 0.383337 0.050447
vt 0.419706 0.080294
vt 0.449553 0.116663
vt 0.471731 0.158156
vt 0.485388 0.203178
vt 0.490000 0.250000
vt 0.485388 0.296822
vt 0.471731 0.341844
vt 0.449553 0.383337
vt 0.419706 0.419706
vt 0.383337 0.449553
vt 0.341844 0.471731
vt 0.031250 1.000000
vt 0.031250 0.923013
vt 0.000000 1.000000
vt 0.000000 0.923013
vt 0.750000 0.490000
vt 0.796822 0.485388
vt 0.841844 0.471731
vt 0.883337 0.449553
vt 0.919706 0.419706
vt 0.949553 0.383337
vt 0.971731 0.341844
vt 0.985388 0.296822
vt 0.990000 0.250000
vt 0.985388 0.203178
vt 0.971731 0.158156
vt 0.949553 0.116663
vt 0.919706 0.080294
vt 0.883337 0.050447
vt 0.841844 0.028269
vt 0.796822 0.014612
vt 0.750000 0.010000
vt 0.703178 0.014612
vt 0.658156 0.028269
vt 0.616663 0.050447
vt 0.580294 0.080294
vt 0.550447 0.116663
vt 0.528269 0.158156
vt 0.514611 0.203179
vt 0.510000 0.250000
vt 0.514612 0.296822
vt 0.528269 0.341844
vt 0.550447 0.383337
vt 0.580295 0.419706
vt 0.616663 0.449553
vt 0.658156 0.471731
vt 0.703179 0.485389
vt 0.031250 0.500000
vt 0.031250 0.846026
vt 0.000000 0.846026
vt 0.000000 0.500000
vt 0.062500 0.500000
vt 0.062500 0.846027
vt 0.093750 0.500000
vt 0.093750 0.846027
vt 0.125000 0.500000
vt 0.125000 0.846027
vt 0.156250 0.500000
vt 0.156250 0.846027
vt 0.187500 0.500000
vt 0.187500 0.846027
vt 0.218750 0.500000
vt 0.218750 0.846027
vt 0.250000 0.500000
vt 0.250000 0.846027
vt 0.281250 0.500000
vt 0.281250 0.846027
vt 0.312500 0.500000
vt 0.312500 0.846026
vt 0.343750 0.500000
vt 0.343750 0.846027
vt 0.375000 0.500000
vt 0.375000 0.846026
vt 0.406250 0.500000
vt 0.406250 0.846027
vt 0.437500 0.500000
vt 0.437500 0.846027
vt 0.468750 0.500000
vt 0.468750 0.846027
vt 0.500000 0.500000
vt 0.500000 0.846026
vt 0.531250 0.500000
vt 0.531250 0.846027
vt 0.562500 0.500000
vt 0.562500 0.846026
vt 0.593750 0.500000
vt 0.593750 0.846026
vt 0.625000 0.500000
vt 0.625000 0.846026
vt 0.656250 0.500000
vt 0.656250 0.846027
vt 0.687500 0.500000
vt 0.687500 0.846027
vt 0.718750 0.500000
vt 0.718750 0.846027
vt 0.750000 0.500000
vt 0.750000 0.846027
vt 0.781250 0.500000
vt 0.781250 0.846026
vt 0.812500 0.500000
vt 0.812500 0.846027
vt 0.843750 0.500000
vt 0.843750 0.846027
vt 0.875000 0.500000
vt 0.875000 0.846027
vt 0.906250 0.500000
vt 0.906250 0.846027
vt 0.937500 0.500000
vt 0.937500 0.846027
vt 0.968750 0.500000
vt 0.968750 0.846027
vt 1.000000 0.500000
vt 1.000000 0.846026
vn -0.8440 0.0526 -0.5338
vn -0.8440 0.1557 -0.5133
vn -0.8440 0.2528 -0.4731
vn -0.8440 0.3403 -0.4146
vn -0.8440 0.4147 -0.3403
vn -0.8440 0.4730 -0.2529
vn -0.8440 0.5133 -0.1557
vn -0.8440 0.5338 -0.0526
vn -0.8440 0.5338 0.0526
vn -0.8440 0.5133 0.1557
vn -0.8440 0.4730 0.2529
vn -0.8440 0.4146 0.3403
vn -0.8440 0.3403 0.4146
vn -0.8440 0.2528 0.4731
vn -0.8440 0.1557 0.5133
vn -0.8440 0.0526 0.5338
vn -0.8440 -0.0526 0.5338
vn -0.8440 -0.1557 0.5133
vn -0.8440 -0.2529 0.4730
vn -0.8440 -0.3403 0.4146
vn -0.8440 -0.4146 0.3403
vn -0.8440 -0.4731 0.2528
vn -0.8440 -0.5133 0.1557
vn -0.8440 -0.5338 0.0526
vn -0.8440 -0.5338 -0.0526
vn -0.8440 -0.5133 -0.1557
vn -0.8440 -0.4731 -0.2528
vn -0.8440 -0.4146 -0.3403
vn -0.8440 -0.3403 -0.4146
vn -0.8440 -0.2528 -0.4730
vn -1.0000 0.0000 0.0000
vn -0.8440 -0.1557 -0.5133
vn -0.8440 -0.0526 -0.5338
vn 1.0000 -0.0000 0.0000
vn 0.0000 -0.0980 -0.9952
vn 0.0000 -0.2903 -0.9569
vn 0.0000 -0.4714 -0.8819
vn 0.0000 -0.6344 -0.7730
vn 0.0000 -0.7730 -0.6344
vn 0.0000 -0.8819 -0.4714
vn 0.0000 -0.9569 -0.2903
vn 0.0000 -0.9952 -0.0980
vn -0.0000 -0.9952 0.0980
vn -0.0000 -0.9569 0.2903
vn -0.0000 -0.8819 0.4714
vn -0.0000 -0.7730 0.6344
vn 0.0000 -0.6344 0.7730
vn 0.0000 -0.4714 0.8819
vn 0.0000 -0.2903 0.9569
vn 0.0000 -0.0980 0.9952
vn 0.0000 0.0980 0.9952
vn 0.0000 0.2903 0.9569
vn 0.0000 0.4714 0.8819
vn 0.0000 0.6344 0.7730
vn 0.0000 0.7730 0.6344
vn 0.0000 0.8819 0.4714
vn 0.0000 0.9569 0.2903
vn 0.0000 0.9952 0.0980
vn 0.0000 0.9952 -0.0980
vn 0.0000 0.9569 -0.2903
vn 0.0000 0.8819 -0.4714
vn 0.0000 0.7730 -0.6344
vn 0.0000 0.6344 -0.7730
vn 0.0000 0.4714 -0.8819
vn 0.0000 0.2903 -0.9569
vn 0.0000 0.0980 -0.9952
vn -0.3217 -0.0928 -0.9423
vn -0.3217 -0.2748 -0.9061
vn -0.3217 -0.4463 -0.8350
vn -0.3217 -0.6007 -0.7319
vn -0.3217 -0.7319 -0.6007
vn -0.3217 -0.8350 -0.4463
vn -0.3217 -0.9061 -0.2748
vn -0.3217 -0.9423 -0.0928
vn -0.3217 -0.9423 0.0928
vn -0.3217 -0.9061 0.2748
vn -0.3217 -0.8350 0.4463
vn -0.3217 -0.7319 0.6007
vn -0.3217 -0.6007 0.7319
vn -0.3217 -0.4463 0.8350
vn -0.3217 -0.2748 0.9061
vn -0.3217 -0.0928 0.9423
vn -0.3217 0.0928 0.9423
vn -0.3217 0.2749 0.9061
vn -0.3217 0.4463 0.8350
vn -0.3217 0.6007 0.7319
vn -0.3217 0.7319 0.6007
vn -0.3217 0.8350 0.4463
vn -0.3217 0.9061 0.2749
vn -0.3217 0.9423 0.0928
vn -0.3217 0.9423 -0.0928
vn -0.3217 0.9061 -0.2749
vn -0.3217 0.8350 -0.4463
vn -0.3217 0.7319 -0.6007
vn -0.3217 0.6007 -0.7319
vn -0.3217 0.4463 -0.8350
vn -0.3217 0.2749 -0.9061
vn -0.3217 0.0928 -0.9423
usemtl None
s off
f 97/1/1 2/2/1 4/3/1 98/4/1
f 98/4/2 4/3/2 6/5/2 99/6/2
f 99/6/3 6/5/3 8/7/3 100/8/3
f 100/8/4 8/7/4 10/9/4 101/10/4
f 101/10/5 10/9/5 12/11/5 102/12/5
f 102/12/6 12/11/6 14/13/6 103/14/6
f 103/14/7 14/13/7 16/15/7 104/16/7
f 104/16/8 16/15/8 18/17/8 105/18/8
f 105/18/9 18/17/9 20/19/9 106/20/9
f 106/20/10 20/19/10 22/21/10 107/22/10
f 107/22/11 22/21/11 24/23/11 108/24/11
f 108/24/12 24/23/12 26/25/12 109/26/12
f 109/26/13 26/25/13 28/27/13 110/28/13
f 110/28/14 28/27/14 30/29/14 111/30/14
f 111/30/15 30/29/15 32/31/15 112/32/15
f 112/32/16 32/31/16 34/33/16 113/34/16
f 113/34/17 34/33/17 36/35/17 114/36/17
f 114/36/18 36/35/18 38/37/18 115/38/18
f 115/38/19 38/37/19 40/39/19 116/40/19
f 116/40/20 40/39/20 42/41/20 117/42/20
f 117/42/21 42/41/21 44/43/21 118/44/21
f 118/44/22 44/43/22 46/45/22 119/46/22
f 119/46/23 46/45/23 48/47/23 120/48/23
f 120/48/24 48/47/24 50/49/24 121/50/24
f 121/50/25 50/49/25 52/51/25 122/52/25
f 122/52/26 52/51/26 54/53/26 123/54/26
f 123/54/27 54/53/27 56/55/27 124/56/27
f 124/56/28 56/55/28 58/57/28 125/58/28
f 125/58/29 58/57/29 60/59/29 126/60/29
f 126/60/30 60/59/30 62/61/30 127/62/30
f 4/63/31 2/64/31 64/65/31 62/66/31 60/67/31 58/68/31 56/69/31 54/70/31 52/71/31 50/72/31 48/73/31 46/74/31 44/75/31 42/76/31 40/77/31 38/78/31 36/79/31 34/80/31 32/81/31 30/82/31 28/83/31 26/84/31 24/85/31 22/86/31 20/87/31 18/88/31 16/89/31 14/90/31 12/91/31 10/92/31 8/93/31 6/94/31
f 127/62/32 62/61/32 64/95/32 128/96/32
f 128/96/33 64/95/33 2/97/33 97/98/33
f 1/99/34 3/100/34 5/101/34 7/102/34 9/103/34 11/104/34 13/105/34 15/106/34 17/107/34 19/108/34 21/109/34 23/110/34 25/111/34 27/112/34 29/113/34 31/114/34 33/115/34 35/116/34 37/117/34 39/118/34 41/119/34 43/120/34 45/121/34 47/122/34 49/123/34 51/124/34 53/125/34 55/126/34 57/127/34 59/128/34 61/129/34 63/130/34
f 63/131/35 96/132/35 65/133/35 1/134/35
f 61/135/36 95/136/36 96/132/36 63/131/36
f 59/137/37 94/138/37 95/136/37 61/135/37
f 57/139/38 93/140/38 94/138/38 59/137/38
f 55/141/39 92/142/39 93/140/39 57/139/39
f 53/143/40 91/144/40 92/142/40 55/141/40
f 51/145/41 90/146/41 91/144/41 53/143/41
f 49/147/42 89/148/42 90/146/42 51/145/42
f 47/149/43 88/150/43 89/148/43 49/147/43
f 45/151/44 87/152/44 88/150/44 47/149/44
f 43/153/45 86/154/45 87/152/45 45/151/45
f 41/155/46 85/156/46 86/154/46 43/153/46
f 39/157/47 84/158/47 85/156/47 41/155/47
f 37/159/48 83/160/48 84/158/48 39/157/48
f 35/161/49 82/162/49 83/160/49 37/159/49
f 33/163/50 81/164/50 82/162/50 35/161/50
f 31/165/51 80/166/51 81/164/51 33/163/51
f 29/167/52 79/168/52 80/166/52 31/165/52
f 27/169/53 78/170/53 79/168/53 29/167/53
f 25/171/54 77/172/54 78/170/54 27/169/54
f 23/173/55 76/174/55 77/172/55 25/171/55
f 21/175/56 75/176/56 76/174/56 23/173/56
f 19/177/57 74/178/57 75/176/57 21/175/57
f 17/179/58 73/180/58 74/178/58 19/177/58
f 15/181/59 72/182/59 73/180/59 17/179/59
f 13/183/60 71/184/60 72/182/60 15/181/60
f 11/185/61 70/186/61 71/184/61 13/183/61
f 9/187/62 69/188/62 70/186/62 11/185/62
f 7/189/63 68/190/63 69/188/63 9/187/63
f 5/191/64 67/192/64 68/190/64 7/189/64
f 3/193/65 66/194/65 67/192/65 5/191/65
f 1/195/66 65/196/66 66/194/66 3/193/66
f 96/132/67 128/96/67 97/98/67 65/133/67
f 95/136/68 127/62/68 128/96/68 96/132/68
f 94/138/69 126/60/69 127/62/69 95/136/69
f 93/140/70 125/58/70 126/60/70 94/138/70
f 92/142/71 124/56/71 125/58/71 93/140/71
f 91/144/72 123/54/72 124/56/72 92/142/72
f 90/146/73 122/52/73 123/54/73 91/144/73
f 89/148/74 121/50/74 122/52/74 90/146/74
f 88/150/75 120/48/75 121/50/75 89/148/75
f 87/152/76 119/46/76 120/48/76 88/150/76
f 86/154/77 118/44/77 119/46/77 87/152/77
f 85/156/78 117/42/78 118/44/78 86/154/78
f 84/158/79 116/40/79 117/42/79 85/156/79
f 83/160/80 115/38/80 116/40/80 84/158/80
f 82/162/81 114/36/81 115/38/81 83/160/81
f 81/164/82 113/34/82 114/36/82 82/162/82
f 80/166/83 112/32/83 113/34/83 81/164/83
f 79/168/84 111/30/84 112/32/84 80/166/84
f 78/170/85 110/28/85 111/30/85 79/168/85
f 77/172/86 109/26/86 110/28/86 78/170/86
f 76/174/87 108/24/87 109/26/87 77/172/87
f 75/176/88 107/22/88 108/24/88 76/174/88
f 74/178/89 106/20/89 107/22/89 75/176/89
f 73/180/90 105/18/90 106/20/90 74/178/90
f 72/182/91 104/16/91 105/18/91 73/180/91
f 71/184/92 103/14/92 104/16/92 72/182/92
f 70/186/93 102/12/93 103/14/93 71/184/93
f 69/188/94 101/10/94 102/12/94 70/186/94
f 68/190/95 100/8/95 101/10/95 69/188/95
f 67/192/96 99/6/96 100/8/96 68/190/96
f 66/194/97 98/4/97 99/6/97 67/192/97
f 65/196/98 97/1/98 98/4/98 66/194/98
