# Blender v2.83.1 OBJ File: ''
# www.blender.org
mtllib ControlStickRight.mtl
o Cube
v 0.090000 1.140000 0.140000
v 0.100000 -1.000000 -0.100000
v 0.090000 1.140000 0.310000
v 0.100000 -1.000000 0.100000
v -0.090000 1.140000 0.140000
v -0.100000 -1.000000 -0.100000
v -0.090000 1.140000 0.310000
v -0.100000 -1.000000 0.100000
v 0.100000 0.000000 -0.100000
v -0.100000 0.000000 0.100000
v 0.100000 0.000000 0.100000
v -0.100000 0.000000 -0.100000
v -0.100000 0.500000 0.140000
v 0.100000 0.500000 -0.060000
v 0.100000 0.500000 0.140000
v -0.100000 0.500000 -0.060000
v -0.130000 0.870000 0.280000
v 0.130000 0.870000 0.040000
v 0.130000 0.870000 0.280000
v -0.130000 0.870000 0.040000
v 0.100000 0.836481 0.047674
v 0.100000 0.836481 0.247674
v -0.100000 0.836481 0.047674
v -0.100000 0.836481 0.247674
v -0.130000 1.100000 0.340000
v 0.130000 1.100000 0.100000
v 0.130000 1.100000 0.340000
v -0.130000 1.100000 0.100000
v -0.130000 1.100000 0.100000
v -0.130000 1.100000 0.340000
v -0.130000 1.100000 0.340000
v -0.130000 1.100000 0.100000
vt 0.625000 0.500000
vt 0.875000 0.500000
vt 0.875000 0.750000
vt 0.625000 0.750000
vt 0.620594 0.750000
vt 0.625000 1.000000
vt 0.620594 1.000000
vt 0.604560 0.000000
vt 0.608917 1.000000
vt 0.608917 0.250000
vt 0.604560 0.250000
vt 0.125000 0.500000
vt 0.375000 0.500000
vt 0.375000 0.750000
vt 0.125000 0.750000
vt 0.620594 0.500000
vt 0.620593 0.250000
vt 0.625000 0.250000
vt 0.375000 0.250000
vt 0.500000 0.250000
vt 0.500000 0.500000
vt 0.500000 0.750000
vt 0.375000 0.000000
vt 0.500000 0.000000
vt 0.500000 1.000000
vt 0.375000 1.000000
vt 0.562500 0.250000
vt 0.562500 0.500000
vt 0.562500 0.750000
vt 0.562500 0.000000
vt 0.562500 1.000000
vt 0.608917 0.500000
vt 0.604560 0.500000
vt 0.608917 0.750000
vt 0.604560 0.750000
vt 0.000000 0.000000
vt 0.000000 0.000000
vt 0.604560 1.000000
vn 0.0000 1.0000 0.0000
vn 0.0000 0.6000 0.8000
vn -0.7451 -0.6669 0.0000
vn 0.0000 -1.0000 0.0000
vn 0.7071 0.7071 0.0000
vn 0.0000 0.7071 -0.7071
vn 0.0000 0.0000 -1.0000
vn 1.0000 0.0000 0.0000
vn -1.0000 0.0000 0.0000
vn 0.0000 0.0000 1.0000
vn 0.0000 0.0797 -0.9968
vn 0.0000 -0.0797 0.9968
vn 0.0000 -0.2232 -0.9748
vn 0.7451 -0.6669 0.0000
vn 0.0000 -0.6942 0.7198
vn 0.0000 -0.3048 0.9524
vn 0.0000 0.3048 -0.9524
vn 0.0000 0.2524 -0.9676
vn 0.0000 -0.2524 0.9676
vn -0.7071 0.7071 0.0000
usemtl Material
s off
f 1/1/1 5/2/1 7/3/1 3/4/1
f 27/5/2 3/4/2 7/6/2 25/7/2
f 24/8/3 17/9/3 20/10/3 23/11/3
f 6/12/4 2/13/4 4/14/4 8/15/4
f 26/16/5 1/1/5 3/4/5 27/5/5
f 28/17/6 5/18/6 1/1/6 26/16/6
f 6/19/7 12/20/7 9/21/7 2/13/7
f 2/13/8 9/21/8 11/22/8 4/14/8
f 8/23/9 10/24/9 12/20/9 6/19/9
f 4/14/10 11/22/10 10/25/10 8/26/10
f 12/20/11 16/27/11 14/28/11 9/21/11
f 9/21/8 14/28/8 15/29/8 11/22/8
f 10/24/9 13/30/9 16/27/9 12/20/9
f 11/22/12 15/29/12 13/31/12 10/25/12
f 23/11/13 20/10/13 18/32/13 21/33/13
f 21/33/14 18/32/14 19/34/14 22/35/14
f 28/17/9 20/10/9 17/9/9 25/7/9 29/36/9 30/37/9
f 22/35/15 19/34/15 17/9/15 24/38/15
f 15/29/16 22/35/16 24/38/16 13/31/16
f 13/30/9 24/8/9 23/11/9 16/27/9
f 14/28/8 21/33/8 22/35/8 15/29/8
f 16/27/17 23/11/17 21/33/17 14/28/17
f 20/10/18 28/17/18 26/16/18 18/32/18
f 18/32/8 26/16/8 27/5/8 19/34/8
f 19/34/19 27/5/19 25/7/19 17/9/19
f 25/7/20 7/3/20 5/18/20 28/17/20 30/37/20 29/36/20
l 31 32
