# Blender v2.83.2 OBJ File: ''
# www.blender.org
mtllib CraneCab.mtl
o Cube.001_Cube.004
v -6.000000 2.300000 -1.100000
v -6.000000 3.000000 -1.100000
v -6.000000 3.000000 -1.500000
v -6.000000 2.300000 -1.500000
v -3.000000 2.300000 -1.500000
v -3.000000 3.000000 -1.500000
v -2.000000 3.000000 -1.500000
v -2.000000 2.300000 -1.500000
v -2.000000 2.300000 1.100000
v -2.000000 3.000000 1.100001
v -2.000000 3.000000 1.500000
v -2.000000 2.300000 1.500000
v -5.000000 2.300000 1.500000
v -5.000000 3.000000 1.500000
v -6.000000 3.000000 1.500000
v -6.000000 2.300000 1.500000
v -3.000000 2.300000 1.100000
v -3.000000 2.300000 1.500000
v -5.000000 3.000000 1.100001
v -6.000000 3.000000 1.100001
v -5.400000 4.500000 1.100001
v -5.000000 4.500000 1.100001
v -5.000000 4.500000 -1.499999
v -5.400000 4.500000 -1.499999
v -5.100000 4.800001 -1.499999
v -5.000000 4.800001 -1.499999
v -3.000000 2.300000 -0.300000
v -2.000000 2.300000 -0.300000
v -2.000000 2.300000 0.100000
v -3.000000 2.300000 0.100000
v -2.000000 3.000000 -0.300000
v -2.000000 3.000000 0.100000
v -6.000000 2.300000 0.400000
v -6.000000 3.000000 0.400000
v -6.000000 3.000000 0.100000
v -6.000000 2.300000 0.100000
v -2.000000 2.300000 -1.100000
v -2.000000 3.000000 -1.100000
v -2.000000 3.000000 -0.700000
v -2.000000 2.300000 -0.700000
v -3.000000 2.300000 -1.100000
v -3.000000 2.300000 -0.700000
v -4.000000 4.500000 0.100001
v -3.000000 4.500000 0.100001
v -3.000000 5.000000 0.100001
v -4.000000 4.800000 0.100001
v -6.000000 2.300000 -0.300000
v -6.000000 3.000000 -0.300000
v -6.000000 3.000000 -0.700000
v -6.000000 2.300000 -0.700000
v -5.400000 4.500000 -1.099999
v -5.100000 4.800000 -1.099999
v -6.000000 2.300000 1.100000
v -6.000000 3.000000 0.700000
v -6.000000 2.300000 0.700000
v -5.000000 3.000000 0.400000
v -5.000000 3.000000 0.700000
v -3.000000 2.300000 0.400000
v -2.000000 2.300000 0.400000
v -2.000000 2.300000 0.700000
v -3.000000 2.300000 0.700000
v -2.000000 3.000000 0.400000
v -2.000000 3.000000 0.700000
v -5.000000 3.000000 0.100000
v -2.000000 4.500000 0.100001
v -2.200000 5.000000 0.100001
v -5.000000 2.300000 -1.500000
v -4.000000 2.300000 -1.500000
v -4.000000 2.300000 -1.100000
v -5.000000 2.300000 -1.100000
v -5.400000 4.500000 -0.699999
v -5.100000 4.800000 -0.699999
v -3.000000 3.000000 0.100000
v -4.000000 3.000000 0.100000
v -4.000000 3.000000 0.400000
v -3.000000 3.000000 0.400000
v -5.000000 2.300000 0.100000
v -4.000000 2.300000 0.100000
v -4.000000 2.300000 0.400000
v -5.000000 2.300000 0.400000
v -5.000000 2.300000 0.700000
v -4.000000 2.300000 0.700000
v -4.000000 2.300000 1.100000
v -5.000000 2.300000 1.100000
v -3.000000 3.000000 0.700000
v -4.000000 3.000000 0.700000
v -4.000000 3.000000 1.100001
v -3.000000 3.000000 1.100001
v -2.111741 5.106771 -0.699999
v -2.111741 5.106771 -1.399999
v -2.734848 5.000000 -1.099999
v -2.734848 5.000000 -0.699999
v -5.000000 2.300000 -0.700000
v -4.000000 2.300000 -0.700000
v -4.000000 2.300000 -0.300000
v -5.000000 2.300000 -0.300000
v -3.000000 4.500000 -1.499999
v -4.000000 4.500000 -1.499999
v -4.000000 4.800001 -1.499999
v -3.000000 5.000000 -1.499999
v -5.400000 4.500000 -0.299999
v -5.400000 4.500000 0.100001
v -5.100000 4.800000 0.100001
v -5.100000 4.800000 -0.299999
v -4.000000 3.000000 1.500000
v -3.000000 3.000000 1.500000
v -3.500000 4.500000 1.500001
v -4.000000 4.500000 1.500001
v -4.000000 2.300000 1.500000
v -5.000000 3.000000 -1.500000
v -4.000000 3.000000 -1.500000
v -2.111741 5.106771 0.000001
v -2.734848 5.000000 -0.299999
v -5.000000 4.500000 0.100001
v -5.000000 4.800000 0.100001
v -5.000000 4.800000 -0.299999
v -5.000000 4.800000 -1.099999
v -5.000000 4.800000 -0.699999
v -4.000000 4.800000 -1.099999
v -3.000000 5.000000 -1.099999
v -3.000000 5.000000 -0.699999
v -4.000000 4.800000 -0.699999
v -4.000000 4.800000 -0.299999
v -3.000000 5.000000 -0.299999
v -2.200000 5.000000 -1.499999
v -2.000000 4.500000 -1.499999
v -5.400000 4.500000 1.500001
v -5.000000 4.500000 1.500001
v -3.500000 4.500000 1.100001
v -4.000000 4.500000 1.100001
v -2.200000 3.500000 -1.499999
v -3.000000 3.500000 -1.499999
v -3.000000 4.000000 -1.499999
v -2.000000 4.000000 -1.499999
v -2.200000 3.500000 -1.399999
v -2.000000 4.000000 -1.399999
v -5.800000 3.500000 -0.699999
v -5.800000 3.500000 -0.299999
v -5.600000 4.000000 -0.299999
v -5.600000 4.000000 -0.699999
v -5.000000 3.500000 0.100001
v -4.000000 3.500000 0.100001
v -4.000000 4.000000 0.100001
v -5.000000 4.000000 0.100001
v -3.300000 4.900000 -1.399999
v -5.106044 3.000000 -1.399999
v -2.300000 3.000000 -1.399999
v -2.200000 3.500000 0.100001
v -2.200000 3.500000 0.000001
v -2.000000 4.000000 0.000001
v -2.000000 4.000000 0.100001
v -5.800000 3.500000 0.100001
v -5.600000 4.000000 0.100001
v -4.000000 3.500000 -1.499999
v -4.000000 4.000000 -1.499999
v -2.300000 4.900000 -0.699999
v -2.300000 4.900000 -1.399999
v -5.800000 3.500000 -1.099999
v -5.600000 4.000000 -1.099999
v -3.000000 3.500000 0.100001
v -3.000000 4.000000 0.100001
v -5.800000 3.500000 -1.499999
v -5.600000 4.000000 -1.499999
v -5.000000 3.500000 -1.499999
v -5.000000 4.000000 -1.499999
v -2.300000 3.000000 0.000000
v -5.106044 3.000000 0.000000
v -3.300000 4.900000 0.000001
v -2.300000 4.900000 0.000001
v -2.200000 3.500000 -0.699999
v -5.106044 3.000000 -0.500000
v -5.106044 3.000000 -0.700000
v -3.300000 4.900000 -0.699999
v -3.300000 4.900000 -0.499999
v -5.106044 3.000000 -0.899999
v -3.300000 4.900000 -0.899999
v -2.300000 3.000000 -0.700000
v -2.300000 3.000000 -0.500000
v -2.300000 3.000000 -0.899999
v -4.415603 4.691103 -1.399999
v -4.415603 4.691103 0.000001
v -4.415603 4.691103 -0.499999
v -4.415603 4.691103 -0.699999
v -4.415603 4.691103 -0.899999
vt 0.375000 0.218750
vt 0.625000 0.218750
vt 0.625000 0.250000
vt 0.375000 0.250000
vt 0.375000 0.437500
vt 0.625000 0.437500
vt 0.625000 0.500000
vt 0.375000 0.500000
vt 0.375000 0.718750
vt 0.625000 0.718750
vt 0.625000 0.750000
vt 0.375000 0.750000
vt 0.375000 0.937500
vt 0.625000 0.937500
vt 0.625000 1.000000
vt 0.375000 1.000000
vt 0.312500 0.718750
vt 0.312500 0.750000
vt 0.812500 0.718750
vt 0.875000 0.718750
vt 0.875000 0.718750
vt 0.812500 0.718750
vt 0.625000 0.312500
vt 0.625000 0.250000
vt 0.625000 0.250000
vt 0.625000 0.312500
vt 0.312500 0.593750
vt 0.375000 0.593750
vt 0.375000 0.625000
vt 0.312500 0.625000
vt 0.625000 0.593750
vt 0.625000 0.625000
vt 0.375000 0.093750
vt 0.625000 0.093750
vt 0.625000 0.125000
vt 0.375000 0.125000
vt 0.375000 0.531250
vt 0.625000 0.531250
vt 0.625000 0.562500
vt 0.375000 0.562500
vt 0.312500 0.531250
vt 0.312500 0.562500
vt 0.750000 0.625000
vt 0.687500 0.625000
vt 0.687500 0.625000
vt 0.750000 0.625000
vt 0.375000 0.156250
vt 0.625000 0.156250
vt 0.625000 0.187500
vt 0.375000 0.187500
vt 0.625000 0.218750
vt 0.625000 0.218750
vt 0.375000 0.031250
vt 0.625000 0.031250
vt 0.625000 0.062500
vt 0.375000 0.062500
vt 0.812500 0.656250
vt 0.875000 0.656250
vt 0.875000 0.687500
vt 0.812500 0.687500
vt 0.312500 0.656250
vt 0.375000 0.656250
vt 0.375000 0.687500
vt 0.312500 0.687500
vt 0.625000 0.656250
vt 0.625000 0.687500
vt 0.375000 0.000000
vt 0.625000 0.000000
vt 0.812500 0.625000
vt 0.875000 0.625000
vt 0.625000 0.625000
vt 0.625000 0.625000
vt 0.312500 0.500000
vt 0.187500 0.500000
vt 0.250000 0.500000
vt 0.250000 0.531250
vt 0.187500 0.531250
vt 0.625000 0.187500
vt 0.625000 0.187500
vt 0.687500 0.625000
vt 0.750000 0.625000
vt 0.750000 0.656250
vt 0.687500 0.656250
vt 0.187500 0.625000
vt 0.250000 0.625000
vt 0.250000 0.656250
vt 0.187500 0.656250
vt 0.187500 0.687500
vt 0.250000 0.687500
vt 0.250000 0.718750
vt 0.187500 0.718750
vt 0.687500 0.687500
vt 0.750000 0.687500
vt 0.750000 0.718750
vt 0.687500 0.718750
vt 0.625000 0.562500
vt 0.625000 0.531250
vt 0.625000 0.531250
vt 0.625000 0.562500
vt 0.187500 0.562500
vt 0.250000 0.562500
vt 0.250000 0.593750
vt 0.187500 0.593750
vt 0.625000 0.437500
vt 0.625000 0.375000
vt 0.625000 0.375000
vt 0.625000 0.437500
vt 0.625000 0.156250
vt 0.625000 0.125000
vt 0.625000 0.125000
vt 0.625000 0.156250
vt 0.625000 0.875000
vt 0.625000 0.812500
vt 0.625000 0.812500
vt 0.625000 0.875000
vt 0.250000 0.750000
vt 0.187500 0.750000
vt 0.375000 0.812500
vt 0.375000 0.875000
vt 0.375000 0.312500
vt 0.625000 0.312500
vt 0.625000 0.375000
vt 0.375000 0.375000
vt 0.687500 0.750000
vt 0.625000 0.593750
vt 0.625000 0.593750
vt 0.812500 0.625000
vt 0.812500 0.625000
vt 0.812500 0.593750
vt 0.875000 0.593750
vt 0.875000 0.625000
vt 0.812500 0.531250
vt 0.875000 0.531250
vt 0.875000 0.562500
vt 0.812500 0.562500
vt 0.812500 0.500000
vt 0.875000 0.500000
vt 0.687500 0.500000
vt 0.750000 0.500000
vt 0.750000 0.531250
vt 0.687500 0.531250
vt 0.687500 0.562500
vt 0.750000 0.562500
vt 0.750000 0.593750
vt 0.687500 0.593750
vt 0.625000 0.500000
vt 0.625000 0.500000
vt 0.875000 0.750000
vt 0.812500 0.750000
vt 0.687500 0.718750
vt 0.750000 0.718750
vt 0.750000 0.750000
vt 0.687500 0.750000
vt 0.625000 0.000000
vt 0.625000 0.031250
vt 0.625000 0.937500
vt 0.625000 0.500000
vt 0.625000 0.437500
vt 0.625000 0.437500
vt 0.625000 0.500000
vt 0.625000 0.531250
vt 0.625000 0.531250
vt 0.625000 0.187500
vt 0.625000 0.156250
vt 0.625000 0.156250
vt 0.625000 0.187500
vt 0.812500 0.625000
vt 0.750000 0.625000
vt 0.750000 0.625000
vt 0.812500 0.625000
vt 0.625000 0.531250
vt 0.625000 0.531250
vt 0.625000 0.531250
vt 0.625000 0.531250
vt 0.625000 0.625000
vt 0.625000 0.593750
vt 0.625000 0.593750
vt 0.625000 0.625000
vt 0.625000 0.125000
vt 0.625000 0.125000
vt 0.625000 0.375000
vt 0.625000 0.375000
vt 0.625000 0.562500
vt 0.625000 0.531250
vt 0.625000 0.218750
vt 0.625000 0.218750
vt 0.687500 0.625000
vt 0.687500 0.625000
vt 0.625000 0.250000
vt 0.625000 0.250000
vt 0.625000 0.312500
vt 0.625000 0.312500
vt 0.625000 0.593750
vt 0.625000 0.593750
vt 0.625000 0.593750
vt 0.625000 0.593750
vt 0.625000 0.593750
vt 0.625000 0.562500
vt 0.875000 0.625000
vt 0.875000 0.625000
vt 0.875000 0.625000
vt 0.625000 1.000000
vt 0.125000 0.718750
vt 0.125000 0.750000
vt 0.125000 0.593750
vt 0.125000 0.625000
vt 0.125000 0.531250
vt 0.125000 0.562500
vt 0.125000 0.656250
vt 0.125000 0.687500
vt 0.125000 0.500000
vt 0.625000 0.578125
vt 0.625000 0.562500
vt 0.625000 0.562500
vt 0.625000 0.578125
vt 0.625000 0.546875
vt 0.625000 0.546875
vt 0.625000 0.562500
vt 0.625000 0.578125
vt 0.625000 0.546875
vt 0.625000 0.546875
vt 0.625000 0.562500
vt 0.625000 0.578125
vn -1.0000 0.0000 0.0000
vn 0.0000 0.0000 -1.0000
vn 1.0000 0.0000 0.0000
vn 0.0000 -0.0000 1.0000
vn 0.0000 -1.0000 -0.0000
vn -0.7071 0.7071 0.0000
vn 0.0000 1.0000 0.0000
vn -0.1689 0.9856 0.0000
vn -0.0463 0.8719 -0.4875
vn -0.1509 0.9849 -0.0843
vn 0.0444 0.6631 0.7472
vn -0.0463 0.8719 0.4875
vn -0.1509 0.9849 0.0843
vn -0.1961 0.9806 0.0000
vn 0.0444 0.6631 -0.7472
vn 0.9487 0.3162 0.0000
vn -0.9285 0.3714 0.0000
vn 0.9285 -0.3714 -0.0000
vn 0.7394 -0.6732 0.0000
vn 0.9425 0.0655 0.3277
vn 0.9425 0.0655 -0.3277
vn 0.9285 0.3714 0.0000
vn 0.6320 -0.7750 0.0000
vn 0.1841 -0.9829 0.0000
vn -0.9806 0.1961 0.0000
vn 0.9258 -0.3780 0.0000
usemtl None
s 1
f 1/1/1 2/2/1 3/3/1 4/4/1
f 5/5/2 6/6/2 7/7/2 8/8/2
f 9/9/3 10/10/3 11/11/3 12/12/3
f 13/13/4 14/14/4 15/15/4 16/16/4
f 17/17/5 9/9/5 12/12/5 18/18/5
f 19/19/2 20/20/2 21/21/2 22/22/2
f 23/23/2 24/24/2 25/25/2 26/26/2
f 27/27/5 28/28/5 29/29/5 30/30/5
f 28/28/3 31/31/3 32/32/3 29/29/3
f 33/33/1 34/34/1 35/35/1 36/36/1
f 37/37/3 38/38/3 39/39/3 40/40/3
f 41/41/5 37/37/5 40/40/5 42/42/5
f 43/43/4 44/44/4 45/45/4 46/46/4
f 47/47/1 48/48/1 49/49/1 50/50/1
f 36/36/1 35/35/1 48/48/1 47/47/1
f 40/40/3 39/39/3 31/31/3 28/28/3
f 42/42/5 40/40/5 28/28/5 27/27/5
f 24/24/6 51/51/6 52/52/6 25/25/6
f 53/53/1 20/54/1 54/55/1 55/56/1
f 56/57/7 34/58/7 54/59/7 57/60/7
f 58/61/5 59/62/5 60/63/5 61/64/5
f 59/62/3 62/65/3 63/66/3 60/63/3
f 16/67/1 15/68/1 20/54/1 53/53/1
f 57/60/7 54/59/7 20/20/7 19/19/7
f 61/64/5 60/63/5 9/9/5 17/17/5
f 60/63/3 63/66/3 10/10/3 9/9/3
f 29/29/3 32/32/3 62/65/3 59/62/3
f 30/30/5 29/29/5 59/62/5 58/61/5
f 64/69/7 35/70/7 34/58/7 56/57/7
f 55/56/1 54/55/1 34/34/1 33/33/1
f 44/44/4 65/71/4 66/72/4 45/45/4
f 5/73/5 8/8/5 37/37/5 41/41/5
f 8/8/3 7/7/3 38/38/3 37/37/3
f 50/50/1 49/49/1 2/2/1 1/1/1
f 67/74/5 68/75/5 69/76/5 70/77/5
f 51/51/6 71/78/6 72/79/6 52/52/6
f 73/80/7 74/81/7 75/82/7 76/83/7
f 77/84/5 78/85/5 79/86/5 80/87/5
f 81/88/5 82/89/5 83/90/5 84/91/5
f 85/92/7 86/93/7 87/94/7 88/95/7
f 80/87/5 79/86/5 82/89/5 81/88/5
f 76/83/7 75/82/7 86/93/7 85/92/7
f 89/96/8 90/97/9 91/98/10 92/99/8
f 93/100/5 94/101/5 95/102/5 96/103/5
f 97/104/2 98/105/2 99/106/2 100/107/2
f 70/77/5 69/76/5 94/101/5 93/100/5
f 96/103/5 95/102/5 78/85/5 77/84/5
f 101/108/6 102/109/6 103/110/6 104/111/6
f 105/112/4 106/113/4 107/114/4 108/115/4
f 84/91/5 83/90/5 109/116/5 13/117/5
f 18/118/4 106/113/4 105/112/4 109/119/4
f 67/120/2 110/121/2 111/122/2 68/123/2
f 12/12/4 11/11/4 106/113/4 18/118/4
f 10/10/7 88/95/7 106/124/7 11/11/7
f 65/71/11 112/125/12 113/126/13 66/72/11
f 112/125/12 89/96/8 92/99/8 113/126/13
f 114/127/4 43/43/4 46/46/4 115/128/4
f 62/65/7 76/83/7 85/92/7 63/66/7
f 63/66/7 85/92/7 88/95/7 10/10/7
f 32/32/7 73/80/7 76/83/7 62/65/7
f 71/78/6 101/108/6 104/111/6 72/79/6
f 68/75/5 5/73/5 41/41/5 69/76/5
f 78/85/5 30/30/5 58/61/5 79/86/5
f 82/89/5 61/64/5 17/17/5 83/90/5
f 79/86/5 58/61/5 61/64/5 82/89/5
f 94/101/5 42/42/5 27/27/5 95/102/5
f 69/76/5 41/41/5 42/42/5 94/101/5
f 95/102/5 27/27/5 30/30/5 78/85/5
f 83/90/5 17/17/5 18/18/5 109/116/5
f 68/123/2 111/122/2 6/6/2 5/5/2
f 116/129/7 104/130/7 103/131/7 115/128/7
f 117/132/7 52/133/7 72/134/7 118/135/7
f 118/135/7 72/134/7 104/130/7 116/129/7
f 26/136/7 25/137/7 52/133/7 117/132/7
f 100/138/14 99/139/14 119/140/14 120/141/14
f 121/142/14 122/143/14 123/144/14 124/145/14
f 120/141/14 119/140/14 122/143/14 121/142/14
f 124/145/14 123/144/14 46/46/14 45/45/14
f 113/126/7 124/145/7 45/45/7 66/72/7
f 91/98/7 120/141/7 121/142/7 92/99/7
f 92/99/7 121/142/7 124/145/7 113/126/7
f 125/146/7 100/138/7 120/141/7 91/98/7
f 90/97/9 126/147/15 125/146/15 91/98/10
f 126/147/2 97/104/2 100/107/2 125/146/2
f 22/22/7 21/21/7 127/148/7 128/149/7
f 129/150/7 130/151/7 108/152/7 107/153/7
f 106/124/16 88/95/16 129/150/16 107/153/16
f 20/54/17 15/68/17 127/154/17 21/155/17
f 88/95/2 87/94/2 130/151/2 129/150/2
f 14/14/4 105/112/4 108/115/4 128/156/4
f 131/157/2 132/158/2 133/159/2 134/160/2
f 135/161/18 131/157/18 134/160/18 136/162/18
f 137/163/17 138/164/17 139/165/17 140/166/17
f 141/167/4 142/168/4 143/169/4 144/170/4
f 135/161/4 136/162/4 145/171/4 180/172/4 146/173/4 147/174/4
f 148/175/18 149/176/18 150/177/18 151/178/18
f 138/164/17 152/179/17 153/180/17 139/165/17
f 132/158/2 154/181/2 155/182/2 133/159/2
f 90/97/19 89/96/19 156/183/19 157/184/19
f 158/185/17 137/163/17 140/166/17 159/186/17
f 160/187/4 148/175/4 151/178/4 161/188/4
f 162/189/17 158/185/17 159/186/17 163/190/17
f 142/168/4 160/187/4 161/188/4 143/169/4
f 164/191/2 162/189/2 163/190/2 165/192/2
f 134/160/2 133/159/2 97/104/2 126/147/2
f 136/162/20 134/160/20 126/147/20 90/97/20
f 140/166/17 139/165/17 101/108/17 71/78/17
f 144/170/4 143/169/4 43/43/4 114/127/4
f 150/177/2 149/176/2 166/193/2 167/194/2 181/195/2 168/196/2
f 151/178/21 150/177/21 112/125/21 65/71/21
f 139/165/17 153/180/17 102/109/17 101/108/17
f 133/159/2 155/182/2 98/105/2 97/104/2
f 112/125/2 150/177/2 168/196/2 169/197/2
f 159/186/17 140/166/17 71/78/17 51/51/17
f 161/188/4 151/178/4 65/71/4 44/44/4
f 163/190/17 159/186/17 51/51/17 24/24/17
f 143/169/4 161/188/4 44/44/4 43/43/4
f 165/192/2 163/190/2 24/24/2 23/23/2
f 110/121/2 3/3/2 162/189/2 164/191/2
f 74/81/4 73/80/4 160/187/4 142/168/4
f 3/3/17 2/2/17 158/185/17 162/189/17
f 73/80/4 32/32/4 148/175/4 160/187/4
f 2/2/17 49/49/17 137/163/17 158/185/17
f 39/39/22 38/38/22 135/161/22 170/198/22
f 6/6/2 111/122/2 154/181/2 132/158/2
f 48/48/17 35/35/17 152/179/17 138/164/17
f 32/32/22 31/31/22 149/176/22 148/175/22
f 31/31/22 39/39/22 170/198/22 149/176/22
f 64/69/4 74/81/4 142/168/4 141/167/4
f 49/49/17 48/48/17 138/164/17 137/163/17
f 38/38/22 7/7/22 131/157/22 135/161/22
f 7/7/2 6/6/2 132/158/2 131/157/2
f 35/70/4 64/69/4 141/167/4 152/199/4
f 111/122/2 110/121/2 164/191/2 154/181/2
f 155/182/2 165/192/2 23/23/2 98/105/2
f 153/200/4 144/170/4 114/127/4 102/201/4
f 154/181/2 164/191/2 165/192/2 155/182/2
f 152/199/4 141/167/4 144/170/4 153/200/4
f 15/15/4 14/14/4 128/156/4 127/202/4
f 130/151/7 22/22/7 128/149/7 108/152/7
f 99/139/7 26/136/7 117/132/7 119/140/7
f 122/143/7 118/135/7 116/129/7 123/144/7
f 119/140/7 117/132/7 118/135/7 122/143/7
f 123/144/7 116/129/7 115/128/7 46/46/7
f 102/201/4 114/127/4 115/128/4 103/131/4
f 4/4/2 3/3/2 110/121/2 67/120/2
f 53/203/5 84/91/5 13/117/5 16/204/5
f 47/205/5 96/103/5 77/84/5 36/206/5
f 1/207/5 70/77/5 93/100/5 50/208/5
f 50/208/5 93/100/5 96/103/5 47/205/5
f 33/209/5 80/87/5 81/88/5 55/210/5
f 55/210/5 81/88/5 84/91/5 53/203/5
f 36/206/5 77/84/5 80/87/5 33/209/5
f 4/211/5 67/74/5 70/77/5 1/207/5
f 74/81/7 64/69/7 56/57/7 75/82/7
f 86/93/7 57/60/7 19/19/7 87/94/7
f 75/82/7 56/57/7 57/60/7 86/93/7
f 98/105/2 23/23/2 26/26/2 99/106/2
f 87/94/2 19/19/2 22/22/2 130/151/2
f 109/119/4 105/112/4 14/14/4 13/13/4
f 182/212/23 183/213/23 173/214/24 174/215/24
f 184/216/23 180/172/23 145/171/24 176/217/24
f 168/196/5 174/215/5 173/214/5 156/183/5 169/197/5
f 173/214/5 176/217/5 145/171/5 157/184/5 156/183/5
f 149/176/25 170/198/25 177/218/25 178/219/25 166/193/25
f 89/96/19 112/125/19 169/197/19 156/183/19
f 170/198/25 135/161/25 147/174/25 179/220/25 177/218/25
f 136/162/4 90/97/4 157/184/4 145/171/4
f 183/213/23 184/216/23 176/217/24 173/214/24
f 177/218/7 179/220/7 175/221/7 172/222/7
f 179/220/7 147/174/7 146/173/7 175/221/7
f 181/195/23 182/212/23 174/215/24 168/196/24
f 166/193/7 178/219/7 171/223/7 167/194/7
f 178/219/7 177/218/7 172/222/7 171/223/7
f 167/194/26 171/223/26 182/212/23 181/195/23
f 172/222/26 175/221/26 184/216/23 183/213/23
f 175/221/26 146/173/26 180/172/23 184/216/23
f 171/223/26 172/222/26 183/213/23 182/212/23
