# Blender v2.83.4 OBJ File: ''
# www.blender.org
mtllib InstructionBoard.mtl
o Cube_Cube.001
v -0.100000 -1.000000 1.100000
v -0.060000 1.000000 1.060000
v -0.100000 -1.000000 0.900000
v -0.060000 1.000000 0.940000
v 0.100000 -1.000000 1.100000
v 0.060000 1.000000 1.060000
v 0.100000 -1.000000 0.900000
v 0.060000 1.000000 0.940000
v -0.100000 0.960000 1.100000
v -0.100000 0.960000 0.900000
v 0.100000 0.960000 0.900000
v 0.100000 0.960000 1.100000
vt 0.614155 0.000000
vt 0.625000 0.000000
vt 0.625000 0.250000
vt 0.614155 0.250000
vt 0.625000 0.500000
vt 0.614155 0.500000
vt 0.625000 0.750000
vt 0.614155 0.750000
vt 0.625000 1.000000
vt 0.614155 1.000000
vt 0.125000 0.500000
vt 0.375000 0.500000
vt 0.375000 0.750000
vt 0.125000 0.750000
vt 0.875000 0.500000
vt 0.875000 0.750000
vt 0.375000 1.000000
vt 0.375000 0.250000
vt 0.375000 0.000000
vn -0.7071 0.7071 0.0000
vn 0.0000 0.7071 -0.7071
vn 0.7071 0.7071 0.0000
vn 0.0000 0.7071 0.7071
vn 0.0000 -1.0000 0.0000
vn 0.0000 1.0000 0.0000
vn 0.0000 0.0000 1.0000
vn 1.0000 0.0000 0.0000
vn 0.0000 0.0000 -1.0000
vn -1.0000 0.0000 0.0000
usemtl None
s off
f 9/1/1 2/2/1 4/3/1 10/4/1
f 10/4/2 4/3/2 8/5/2 11/6/2
f 11/6/3 8/5/3 6/7/3 12/8/3
f 12/8/4 6/7/4 2/9/4 9/10/4
f 3/11/5 7/12/5 5/13/5 1/14/5
f 8/5/6 4/15/6 2/16/6 6/7/6
f 5/13/7 12/8/7 9/10/7 1/17/7
f 7/12/8 11/6/8 12/8/8 5/13/8
f 3/18/9 10/4/9 11/6/9 7/12/9
f 1/19/10 9/1/10 10/4/10 3/18/10
o Cube.001_Cube.002
v -0.100000 -1.000000 -0.900000
v -0.060000 1.000000 -0.940000
v -0.100000 -1.000000 -1.100000
v -0.060000 1.000000 -1.060000
v 0.100000 -1.000000 -0.900000
v 0.060000 1.000000 -0.940000
v 0.100000 -1.000000 -1.100000
v 0.060000 1.000000 -1.060000
v -0.100000 0.960000 -0.900000
v -0.100000 0.960000 -1.100000
v 0.100000 0.960000 -1.100000
v 0.100000 0.960000 -0.900000
vt 0.614155 0.000000
vt 0.625000 0.000000
vt 0.625000 0.250000
vt 0.614155 0.250000
vt 0.625000 0.500000
vt 0.614155 0.500000
vt 0.625000 0.750000
vt 0.614155 0.750000
vt 0.625000 1.000000
vt 0.614155 1.000000
vt 0.125000 0.500000
vt 0.375000 0.500000
vt 0.375000 0.750000
vt 0.125000 0.750000
vt 0.875000 0.500000
vt 0.875000 0.750000
vt 0.375000 1.000000
vt 0.375000 0.250000
vt 0.375000 0.000000
vn -0.7071 0.7071 0.0000
vn 0.0000 0.7071 -0.7071
vn 0.7071 0.7071 0.0000
vn 0.0000 0.7071 0.7071
vn 0.0000 -1.0000 0.0000
vn 0.0000 1.0000 0.0000
vn 0.0000 0.0000 1.0000
vn 1.0000 0.0000 0.0000
vn 0.0000 0.0000 -1.0000
vn -1.0000 0.0000 0.0000
usemtl None
s off
f 21/20/11 14/21/11 16/22/11 22/23/11
f 22/23/12 16/22/12 20/24/12 23/25/12
f 23/25/13 20/24/13 18/26/13 24/27/13
f 24/27/14 18/26/14 14/28/14 21/29/14
f 15/30/15 19/31/15 17/32/15 13/33/15
f 20/24/16 16/34/16 14/35/16 18/26/16
f 17/32/17 24/27/17 21/29/17 13/36/17
f 19/31/18 23/25/18 24/27/18 17/32/18
f 15/37/19 22/23/19 23/25/19 19/31/19
f 13/38/20 21/20/20 22/23/20 15/37/20
o Cube.002_Cube.003
v -0.030000 -0.600000 1.000000
v -0.030000 0.900000 1.000000
v -0.030000 -0.600000 -1.000000
v -0.030000 0.900000 -1.000000
v 0.030000 -0.600000 1.000000
v 0.030000 0.900000 1.000000
v 0.030000 -0.600000 -1.000000
v 0.030000 0.900000 -1.000000
v -0.030000 -0.500000 1.000000
v -0.030000 -0.500000 -1.000000
v -0.030000 -0.500000 -0.800000
v -0.030000 -0.500000 0.800000
v -0.030000 0.800000 1.000000
v -0.030000 0.800000 -1.000000
v -0.030000 0.800000 -0.800000
v -0.030000 0.800000 0.800000
v -0.030000 0.750000 -1.000000
v -0.030000 0.750000 -0.800000
v -0.030000 0.750000 0.800000
v -0.030000 0.750000 1.000000
v -0.030000 -0.450000 -1.000000
v -0.030000 -0.450000 -0.800000
v -0.030000 -0.450000 0.800000
v -0.030000 -0.450000 1.000000
v -0.080000 -0.450000 -0.900000
v -0.080000 -0.500000 -0.900000
v -0.080000 -0.450000 0.900000
v -0.080000 -0.500000 0.900000
v -0.080000 0.800000 0.900000
v -0.080000 0.800000 -0.900000
v -0.080000 0.750000 -0.900000
v -0.080000 0.750000 0.900000
vt 0.075519 0.097754
vt 0.050628 0.097732
vt 0.052183 0.044239
vt 0.074039 0.048142
vt 0.000000 0.000000
vt 0.000000 0.000000
vt 0.000000 0.000000
vt 0.681876 0.043711
vt 0.659853 0.046399
vt 0.049914 0.894242
vt 0.049865 0.949903
vt 0.000000 0.000000
vt 0.000000 0.000000
vt 0.073644 0.946978
vt 0.000000 0.000000
vt 0.074807 0.894264
vt 0.000000 0.000000
vt 0.680193 0.949203
vt 0.696406 0.898361
vt 0.672190 0.894799
vt 0.658727 0.945508
vt 0.698276 0.094205
vt 0.672902 0.098288
vt 0.000000 0.000000
vt 0.000000 0.000000
vt 0.000000 0.000000
vt 0.000000 0.000000
vt 0.000000 0.000000
vt 0.000000 0.000000
vt 0.000000 0.000000
vt 0.000000 0.000000
vt 0.000000 0.000000
vn -0.8944 0.0000 -0.4472
vn 0.0000 -1.0000 0.0000
vn -0.8944 0.0000 0.4472
vn 0.0000 1.0000 0.0000
vn -1.0000 0.0000 0.0000
vn 0.0000 0.0000 -1.0000
vn 0.0000 0.0000 1.0000
vn 1.0000 0.0000 0.0000
usemtl None
s off
f 47/39/21 36/40/21 52/41/21 51/42/21
f 36/40/22 33/43/22 52/41/22
f 44/44/23 37/45/23 53/46/23 56/47/23
f 35/48/22 50/49/22 34/50/22
f 51/42/23 52/41/23 33/43/23 48/51/23
f 34/50/21 50/49/21 49/52/21 45/53/21
f 35/48/23 46/54/23 49/52/23 50/49/23
f 38/55/24 54/56/24 39/57/24
f 42/58/23 39/57/23 54/56/23 55/59/23
f 40/60/21 43/61/21 56/47/21 53/46/21
f 42/58/22 55/59/22 41/62/22
f 41/62/21 55/59/21 54/56/21 38/55/21
f 43/61/22 44/44/22 56/47/22
f 40/60/24 53/46/24 37/45/24
f 31/63/25 29/64/25 30/65/25 32/66/25
f 25/67/26 26/68/26 30/65/26 29/64/26
f 28/69/22 32/66/22 30/65/22 26/68/22
f 31/63/27 32/66/27 28/69/27 27/70/27
f 31/63/24 27/70/24 25/67/24 29/64/24
f 51/42/24 48/51/24 47/39/24
f 44/44/28 43/61/28 40/60/28 37/45/28
f 34/50/28 45/53/28 46/54/28 35/48/28
f 47/39/28 48/51/28 33/43/28 36/40/28
f 38/55/28 39/57/28 42/58/28 41/62/28
f 26/68/28 25/67/28 27/70/28 28/69/28
l 37 26
l 34 27
l 25 33
l 28 38
l 48 44
l 41 45
