# Blender v2.83.1 OBJ File: ''
# www.blender.org
mtllib Magnet.mtl
o Cylinder_Cylinder.002
v 7.200000 -0.146238 0.090854
v 7.200000 0.509146 0.396341
v 7.299330 -0.146238 0.100637
v 7.239732 0.509146 0.400255
v 7.394842 -0.146238 0.129610
v 7.277937 0.509146 0.411844
v 7.482867 -0.146238 0.176660
v 7.313147 0.509146 0.430664
v 7.560021 -0.146238 0.239979
v 7.344008 0.509146 0.455992
v 7.623340 -0.146238 0.317134
v 7.369336 0.509146 0.486853
v 7.670390 -0.146238 0.405158
v 7.388156 0.509146 0.522063
v 7.699363 -0.146238 0.500670
v 7.399745 0.509146 0.560268
v 7.709146 -0.146238 0.600000
v 7.403659 0.509146 0.600000
v 7.699363 -0.146238 0.699329
v 7.399745 0.509146 0.639732
v 7.670390 -0.146238 0.794842
v 7.388156 0.509146 0.677937
v 7.623340 -0.146238 0.882867
v 7.369336 0.509146 0.713147
v 7.560021 -0.146238 0.960021
v 7.344008 0.509146 0.744008
v 7.482867 -0.146238 1.023340
v 7.313147 0.509146 0.769336
v 7.394842 -0.146238 1.070390
v 7.277937 0.509146 0.788156
v 7.299330 -0.146238 1.099363
v 7.239732 0.509146 0.799745
v 7.200000 -0.146238 1.109146
v 7.200000 0.509146 0.803658
v 7.100671 -0.146238 1.099363
v 7.160268 0.509146 0.799745
v 7.005158 -0.146238 1.070390
v 7.122064 0.509146 0.788156
v 6.917133 -0.146238 1.023340
v 7.086854 0.509146 0.769336
v 6.839979 -0.146238 0.960021
v 7.055992 0.509146 0.744008
v 6.776660 -0.146238 0.882866
v 7.030664 0.509146 0.713146
v 6.729610 -0.146238 0.794841
v 7.011844 0.509146 0.677936
v 6.700637 -0.146238 0.699329
v 7.000255 0.509146 0.639732
v 6.690854 -0.146238 0.600000
v 6.996342 0.509146 0.600000
v 6.700637 -0.146238 0.500670
v 7.000255 0.509146 0.560268
v 6.729611 -0.146238 0.405158
v 7.011845 0.509146 0.522063
v 6.776661 -0.146238 0.317133
v 7.030664 0.509146 0.486853
v 6.839980 -0.146238 0.239979
v 7.055992 0.509146 0.455991
v 6.917134 -0.146238 0.176660
v 7.086854 0.509146 0.430664
v 7.005159 -0.146238 0.129610
v 7.122064 0.509146 0.411844
v 7.100672 -0.146238 0.100637
v 7.160269 0.509146 0.400255
v 7.200000 0.000000 0.090854
v 7.299330 0.000000 0.100637
v 7.394842 0.000000 0.129610
v 7.482867 0.000000 0.176660
v 7.560021 0.000000 0.239979
v 7.623340 0.000000 0.317134
v 7.670390 0.000000 0.405158
v 7.699363 0.000000 0.500670
v 7.709146 0.000000 0.600000
v 7.699363 0.000000 0.699329
v 7.670390 0.000000 0.794842
v 7.623340 0.000000 0.882867
v 7.560021 0.000000 0.960021
v 7.482867 0.000000 1.023340
v 7.394842 0.000000 1.070390
v 7.299330 0.000000 1.099363
v 7.200000 0.000000 1.109146
v 7.100671 0.000000 1.099363
v 7.005158 0.000000 1.070390
v 6.917133 0.000000 1.023340
v 6.839979 0.000000 0.960021
v 6.776660 0.000000 0.882866
v 6.729610 0.000000 0.794841
v 6.700637 0.000000 0.699329
v 6.690854 0.000000 0.600000
v 6.700637 0.000000 0.500670
v 6.729611 0.000000 0.405158
v 6.776661 0.000000 0.317133
v 6.839980 0.000000 0.239979
v 6.917134 0.000000 0.176660
v 7.005159 0.000000 0.129610
v 7.100672 0.000000 0.100637
v 7.200000 0.254573 0.396341
v 7.239732 0.254573 0.400255
v 7.277937 0.254573 0.411844
v 7.313147 0.254573 0.430664
v 7.344008 0.254573 0.455992
v 7.369336 0.254573 0.486853
v 7.388156 0.254573 0.522063
v 7.399745 0.254573 0.560268
v 7.403659 0.254573 0.600000
v 7.399745 0.254573 0.639732
v 7.388156 0.254573 0.677937
v 7.369336 0.254573 0.713147
v 7.344008 0.254573 0.744008
v 7.313147 0.254573 0.769336
v 7.277937 0.254573 0.788156
v 7.239732 0.254573 0.799745
v 7.200000 0.254573 0.803658
v 7.160268 0.254573 0.799745
v 7.122064 0.254573 0.788156
v 7.086854 0.254573 0.769336
v 7.055992 0.254573 0.744008
v 7.030664 0.254573 0.713146
v 7.011844 0.254573 0.677936
v 7.000255 0.254573 0.639732
v 6.996342 0.254573 0.600000
v 7.000255 0.254573 0.560268
v 7.011845 0.254573 0.522063
v 7.030664 0.254573 0.486853
v 7.055992 0.254573 0.455991
v 7.086854 0.254573 0.430664
v 7.122064 0.254573 0.411844
v 7.160269 0.254573 0.400255
vt 1.000000 0.875000
vt 1.000000 1.000000
vt 0.968750 1.000000
vt 0.968750 0.875000
vt 0.937500 1.000000
vt 0.937500 0.875000
vt 0.906250 1.000000
vt 0.906250 0.875000
vt 0.875000 1.000000
vt 0.875000 0.875000
vt 0.843750 1.000000
vt 0.843750 0.875000
vt 0.812500 1.000000
vt 0.812500 0.875000
vt 0.781250 1.000000
vt 0.781250 0.875000
vt 0.750000 1.000000
vt 0.750000 0.875000
vt 0.718750 1.000000
vt 0.718750 0.875000
vt 0.687500 1.000000
vt 0.687500 0.875000
vt 0.656250 1.000000
vt 0.656250 0.875000
vt 0.625000 1.000000
vt 0.625000 0.875000
vt 0.593750 1.000000
vt 0.593750 0.875000
vt 0.562500 1.000000
vt 0.562500 0.875000
vt 0.531250 1.000000
vt 0.531250 0.875000
vt 0.500000 1.000000
vt 0.500000 0.875000
vt 0.468750 1.000000
vt 0.468750 0.875000
vt 0.437500 1.000000
vt 0.437500 0.875000
vt 0.406250 1.000000
vt 0.406250 0.875000
vt 0.375000 1.000000
vt 0.375000 0.875000
vt 0.343750 1.000000
vt 0.343750 0.875000
vt 0.312500 1.000000
vt 0.312500 0.875000
vt 0.281250 1.000000
vt 0.281250 0.875000
vt 0.250000 1.000000
vt 0.250000 0.875000
vt 0.218750 1.000000
vt 0.218750 0.875000
vt 0.187500 1.000000
vt 0.187500 0.875000
vt 0.156250 1.000000
vt 0.156250 0.875000
vt 0.125000 1.000000
vt 0.125000 0.875000
vt 0.093750 1.000000
vt 0.093750 0.875000
vt 0.062500 1.000000
vt 0.062500 0.875000
vt 0.296822 0.485388
vt 0.250000 0.490000
vt 0.203179 0.485389
vt 0.158156 0.471731
vt 0.116663 0.449553
vt 0.080295 0.419706
vt 0.050447 0.383337
vt 0.028269 0.341844
vt 0.014612 0.296822
vt 0.010000 0.250000
vt 0.014611 0.203179
vt 0.028269 0.158156
vt 0.050447 0.116663
vt 0.080294 0.080294
vt 0.116663 0.050447
vt 0.158156 0.028269
vt 0.203178 0.014612
vt 0.250000 0.010000
vt 0.296822 0.014612
vt 0.341844 0.028269
vt 0.383337 0.050447
vt 0.419706 0.080294
vt 0.449553 0.116663
vt 0.471731 0.158156
vt 0.485388 0.203178
vt 0.490000 0.250000
vt 0.485388 0.296822
vt 0.471731 0.341844
vt 0.449553 0.383337
vt 0.419706 0.419706
vt 0.383337 0.449553
vt 0.341844 0.471731
vt 0.031250 1.000000
vt 0.031250 0.875000
vt 0.000000 1.000000
vt 0.000000 0.875000
vt 0.750000 0.490000
vt 0.796822 0.485388
vt 0.841844 0.471731
vt 0.883337 0.449553
vt 0.919706 0.419706
vt 0.949553 0.383337
vt 0.971731 0.341844
vt 0.985388 0.296822
vt 0.990000 0.250000
vt 0.985388 0.203178
vt 0.971731 0.158156
vt 0.949553 0.116663
vt 0.919706 0.080294
vt 0.883337 0.050447
vt 0.841844 0.028269
vt 0.796822 0.014612
vt 0.750000 0.010000
vt 0.703178 0.014612
vt 0.658156 0.028269
vt 0.616663 0.050447
vt 0.580294 0.080294
vt 0.550447 0.116663
vt 0.528269 0.158156
vt 0.514611 0.203179
vt 0.510000 0.250000
vt 0.514612 0.296822
vt 0.528269 0.341844
vt 0.550447 0.383337
vt 0.580295 0.419706
vt 0.616663 0.449553
vt 0.658156 0.471731
vt 0.703179 0.485389
vt 0.031250 0.500000
vt 0.031250 0.750000
vt 0.000000 0.750000
vt 0.000000 0.500000
vt 0.062500 0.500000
vt 0.062500 0.750000
vt 0.093750 0.500000
vt 0.093750 0.750000
vt 0.125000 0.500000
vt 0.125000 0.750000
vt 0.156250 0.500000
vt 0.156250 0.750000
vt 0.187500 0.500000
vt 0.187500 0.750000
vt 0.218750 0.500000
vt 0.218750 0.750000
vt 0.250000 0.500000
vt 0.250000 0.750000
vt 0.281250 0.500000
vt 0.281250 0.750000
vt 0.312500 0.500000
vt 0.312500 0.750000
vt 0.343750 0.500000
vt 0.343750 0.750000
vt 0.375000 0.500000
vt 0.375000 0.750000
vt 0.406250 0.500000
vt 0.406250 0.750000
vt 0.437500 0.500000
vt 0.437500 0.750000
vt 0.468750 0.500000
vt 0.468750 0.750000
vt 0.500000 0.500000
vt 0.500000 0.750000
vt 0.531250 0.500000
vt 0.531250 0.750000
vt 0.562500 0.500000
vt 0.562500 0.750000
vt 0.593750 0.500000
vt 0.593750 0.750000
vt 0.625000 0.500000
vt 0.625000 0.750000
vt 0.656250 0.500000
vt 0.656250 0.750000
vt 0.687500 0.500000
vt 0.687500 0.750000
vt 0.718750 0.500000
vt 0.718750 0.750000
vt 0.750000 0.500000
vt 0.750000 0.750000
vt 0.781250 0.500000
vt 0.781250 0.750000
vt 0.812500 0.500000
vt 0.812500 0.750000
vt 0.843750 0.500000
vt 0.843750 0.750000
vt 0.875000 0.500000
vt 0.875000 0.750000
vt 0.906250 0.500000
vt 0.906250 0.750000
vt 0.937500 0.500000
vt 0.937500 0.750000
vt 0.968750 0.500000
vt 0.968750 0.750000
vt 1.000000 0.500000
vt 1.000000 0.750000
vn 0.0980 0.0000 -0.9952
vn 0.2903 0.0000 -0.9569
vn 0.4714 0.0000 -0.8819
vn 0.6344 0.0000 -0.7730
vn 0.7730 0.0000 -0.6344
vn 0.8819 0.0000 -0.4714
vn 0.9569 0.0000 -0.2903
vn 0.9952 0.0000 -0.0980
vn 0.9952 0.0000 0.0980
vn 0.9569 0.0000 0.2903
vn 0.8819 0.0000 0.4714
vn 0.7730 0.0000 0.6344
vn 0.6344 0.0000 0.7730
vn 0.4714 0.0000 0.8819
vn 0.2903 0.0000 0.9569
vn 0.0980 0.0000 0.9952
vn -0.0980 0.0000 0.9952
vn -0.2903 0.0000 0.9569
vn -0.4714 0.0000 0.8819
vn -0.6344 0.0000 0.7730
vn -0.7730 0.0000 0.6344
vn -0.8819 0.0000 0.4714
vn -0.9569 0.0000 0.2903
vn -0.9952 0.0000 0.0980
vn -0.9952 0.0000 -0.0980
vn -0.9569 0.0000 -0.2903
vn -0.8819 0.0000 -0.4714
vn -0.7730 0.0000 -0.6344
vn -0.6344 0.0000 -0.7730
vn -0.4714 0.0000 -0.8819
vn 0.0000 1.0000 -0.0000
vn -0.2903 0.0000 -0.9569
vn -0.0980 0.0000 -0.9952
vn 0.0000 -1.0000 -0.0000
vn -0.0629 0.7667 -0.6389
vn -0.1864 0.7667 -0.6144
vn -0.3026 0.7667 -0.5662
vn -0.4073 0.7667 -0.4963
vn -0.4963 0.7667 -0.4073
vn -0.5662 0.7667 -0.3026
vn -0.6144 0.7667 -0.1864
vn -0.6389 0.7667 -0.0629
vn -0.6389 0.7667 0.0629
vn -0.6144 0.7667 0.1864
vn -0.5662 0.7667 0.3026
vn -0.4963 0.7667 0.4073
vn -0.4073 0.7667 0.4963
vn -0.3026 0.7667 0.5662
vn -0.1864 0.7667 0.6144
vn -0.0629 0.7667 0.6389
vn 0.0629 0.7667 0.6389
vn 0.1864 0.7667 0.6144
vn 0.3026 0.7667 0.5662
vn 0.4073 0.7667 0.4963
vn 0.4963 0.7667 0.4073
vn 0.5662 0.7667 0.3026
vn 0.6144 0.7667 0.1864
vn 0.6389 0.7667 0.0629
vn 0.6389 0.7667 -0.0629
vn 0.6144 0.7667 -0.1864
vn 0.5662 0.7667 -0.3026
vn 0.4963 0.7667 -0.4073
vn 0.4073 0.7667 -0.4963
vn 0.3026 0.7667 -0.5662
vn 0.1864 0.7667 -0.6144
vn 0.0629 0.7667 -0.6389
usemtl None
s off
f 97/1/1 2/2/1 4/3/1 98/4/1
f 98/4/2 4/3/2 6/5/2 99/6/2
f 99/6/3 6/5/3 8/7/3 100/8/3
f 100/8/4 8/7/4 10/9/4 101/10/4
f 101/10/5 10/9/5 12/11/5 102/12/5
f 102/12/6 12/11/6 14/13/6 103/14/6
f 103/14/7 14/13/7 16/15/7 104/16/7
f 104/16/8 16/15/8 18/17/8 105/18/8
f 105/18/9 18/17/9 20/19/9 106/20/9
f 106/20/10 20/19/10 22/21/10 107/22/10
f 107/22/11 22/21/11 24/23/11 108/24/11
f 108/24/12 24/23/12 26/25/12 109/26/12
f 109/26/13 26/25/13 28/27/13 110/28/13
f 110/28/14 28/27/14 30/29/14 111/30/14
f 111/30/15 30/29/15 32/31/15 112/32/15
f 112/32/16 32/31/16 34/33/16 113/34/16
f 113/34/17 34/33/17 36/35/17 114/36/17
f 114/36/18 36/35/18 38/37/18 115/38/18
f 115/38/19 38/37/19 40/39/19 116/40/19
f 116/40/20 40/39/20 42/41/20 117/42/20
f 117/42/21 42/41/21 44/43/21 118/44/21
f 118/44/22 44/43/22 46/45/22 119/46/22
f 119/46/23 46/45/23 48/47/23 120/48/23
f 120/48/24 48/47/24 50/49/24 121/50/24
f 121/50/25 50/49/25 52/51/25 122/52/25
f 122/52/26 52/51/26 54/53/26 123/54/26
f 123/54/27 54/53/27 56/55/27 124/56/27
f 124/56/28 56/55/28 58/57/28 125/58/28
f 125/58/29 58/57/29 60/59/29 126/60/29
f 126/60/30 60/59/30 62/61/30 127/62/30
f 4/63/31 2/64/31 64/65/31 62/66/31 60/67/31 58/68/31 56/69/31 54/70/31 52/71/31 50/72/31 48/73/31 46/74/31 44/75/31 42/76/31 40/77/31 38/78/31 36/79/31 34/80/31 32/81/31 30/82/31 28/83/31 26/84/31 24/85/31 22/86/31 20/87/31 18/88/31 16/89/31 14/90/31 12/91/31 10/92/31 8/93/31 6/94/31
f 127/62/32 62/61/32 64/95/32 128/96/32
f 128/96/33 64/95/33 2/97/33 97/98/33
f 1/99/34 3/100/34 5/101/34 7/102/34 9/103/34 11/104/34 13/105/34 15/106/34 17/107/34 19/108/34 21/109/34 23/110/34 25/111/34 27/112/34 29/113/34 31/114/34 33/115/34 35/116/34 37/117/34 39/118/34 41/119/34 43/120/34 45/121/34 47/122/34 49/123/34 51/124/34 53/125/34 55/126/34 57/127/34 59/128/34 61/129/34 63/130/34
f 63/131/33 96/132/33 65/133/33 1/134/33
f 61/135/32 95/136/32 96/132/32 63/131/32
f 59/137/30 94/138/30 95/136/30 61/135/30
f 57/139/29 93/140/29 94/138/29 59/137/29
f 55/141/28 92/142/28 93/140/28 57/139/28
f 53/143/27 91/144/27 92/142/27 55/141/27
f 51/145/26 90/146/26 91/144/26 53/143/26
f 49/147/25 89/148/25 90/146/25 51/145/25
f 47/149/24 88/150/24 89/148/24 49/147/24
f 45/151/23 87/152/23 88/150/23 47/149/23
f 43/153/22 86/154/22 87/152/22 45/151/22
f 41/155/21 85/156/21 86/154/21 43/153/21
f 39/157/20 84/158/20 85/156/20 41/155/20
f 37/159/19 83/160/19 84/158/19 39/157/19
f 35/161/18 82/162/18 83/160/18 37/159/18
f 33/163/17 81/164/17 82/162/17 35/161/17
f 31/165/16 80/166/16 81/164/16 33/163/16
f 29/167/15 79/168/15 80/166/15 31/165/15
f 27/169/14 78/170/14 79/168/14 29/167/14
f 25/171/13 77/172/13 78/170/13 27/169/13
f 23/173/12 76/174/12 77/172/12 25/171/12
f 21/175/11 75/176/11 76/174/11 23/173/11
f 19/177/10 74/178/10 75/176/10 21/175/10
f 17/179/9 73/180/9 74/178/9 19/177/9
f 15/181/8 72/182/8 73/180/8 17/179/8
f 13/183/7 71/184/7 72/182/7 15/181/7
f 11/185/6 70/186/6 71/184/6 13/183/6
f 9/187/5 69/188/5 70/186/5 11/185/5
f 7/189/4 68/190/4 69/188/4 9/187/4
f 5/191/3 67/192/3 68/190/3 7/189/3
f 3/193/2 66/194/2 67/192/2 5/191/2
f 1/195/1 65/196/1 66/194/1 3/193/1
f 96/132/35 128/96/35 97/98/35 65/133/35
f 95/136/36 127/62/36 128/96/36 96/132/36
f 94/138/37 126/60/37 127/62/37 95/136/37
f 93/140/38 125/58/38 126/60/38 94/138/38
f 92/142/39 124/56/39 125/58/39 93/140/39
f 91/144/40 123/54/40 124/56/40 92/142/40
f 90/146/41 122/52/41 123/54/41 91/144/41
f 89/148/42 121/50/42 122/52/42 90/146/42
f 88/150/43 120/48/43 121/50/43 89/148/43
f 87/152/44 119/46/44 120/48/44 88/150/44
f 86/154/45 118/44/45 119/46/45 87/152/45
f 85/156/46 117/42/46 118/44/46 86/154/46
f 84/158/47 116/40/47 117/42/47 85/156/47
f 83/160/48 115/38/48 116/40/48 84/158/48
f 82/162/49 114/36/49 115/38/49 83/160/49
f 81/164/50 113/34/50 114/36/50 82/162/50
f 80/166/51 112/32/51 113/34/51 81/164/51
f 79/168/52 111/30/52 112/32/52 80/166/52
f 78/170/53 110/28/53 111/30/53 79/168/53
f 77/172/54 109/26/54 110/28/54 78/170/54
f 76/174/55 108/24/55 109/26/55 77/172/55
f 75/176/56 107/22/56 108/24/56 76/174/56
f 74/178/57 106/20/57 107/22/57 75/176/57
f 73/180/58 105/18/58 106/20/58 74/178/58
f 72/182/59 104/16/59 105/18/59 73/180/59
f 71/184/60 103/14/60 104/16/60 72/182/60
f 70/186/61 102/12/61 103/14/61 71/184/61
f 69/188/62 101/10/62 102/12/62 70/186/62
f 68/190/63 100/8/63 101/10/63 69/188/63
f 67/192/64 99/6/64 100/8/64 68/190/64
f 66/194/65 98/4/65 99/6/65 67/192/65
f 65/196/66 97/1/66 98/4/66 66/194/66
