# Blender v2.83.3 OBJ File: ''
# www.blender.org
mtllib Dashboard.mtl
o Cube_Cube.002
v 0.500000 -1.000000 1.500000
v -0.700000 1.000000 1.500000
v -0.700000 1.000000 -1.500000
v 0.500000 -1.000000 -1.500000
v -0.500000 1.000000 -1.500000
v -0.350000 0.750000 -1.500000
v -0.200000 0.500000 -1.500000
v -0.050000 0.250000 -1.500000
v 0.100000 0.000000 -1.500000
v 0.250000 -0.250000 -1.500000
v 0.400000 -0.500000 -1.500000
v 0.550000 -0.750000 -1.500000
v 0.700000 -1.000000 -1.500000
v -0.350000 0.750000 1.125000
v -0.500000 1.000000 1.125000
v -0.500000 1.000000 1.500000
v -0.350000 0.750000 1.500000
v 0.700000 -1.000000 1.500000
v 0.550000 -0.750000 1.500000
v 0.400000 -0.500000 1.500000
v 0.250000 -0.250000 1.500000
v 0.100000 -0.000000 1.500000
v -0.050000 0.250000 1.500000
v -0.200000 0.500000 1.500000
v 0.700000 -1.000000 -1.125000
v 0.700000 -1.000000 -0.750000
v 0.700000 -1.000000 -0.375000
v 0.700000 -1.000000 -0.000000
v 0.700000 -1.000000 0.375000
v 0.700000 -1.000000 0.750000
v 0.700000 -1.000000 1.125000
v -0.500000 1.000000 0.750000
v -0.500000 1.000000 0.375000
v -0.500000 1.000000 0.000000
v -0.500000 1.000000 -0.375000
v -0.500000 1.000000 -0.750000
v -0.500000 1.000000 -1.125000
v 0.250000 -0.250000 1.125000
v 0.100000 -0.000000 1.125000
v 0.250000 -0.250000 -0.375000
v 0.100000 0.000000 -0.375000
v 0.100000 0.000000 0.000000
v 0.250000 -0.250000 -0.000000
v -0.350000 0.750000 -0.375000
v -0.350000 0.750000 0.000000
v -0.050000 0.250000 -0.375000
v -0.200000 0.500000 -0.375000
v -0.200000 0.500000 0.000000
v -0.050000 0.250000 0.000000
v -0.350000 0.750000 -1.125000
v -0.350000 0.750000 -0.750000
v 0.550000 -0.750000 -0.375000
v 0.400000 -0.500000 -0.375000
v 0.400000 -0.500000 -0.000000
v 0.550000 -0.750000 -0.000000
v 0.550000 -0.750000 -1.125000
v 0.400000 -0.500000 -1.125000
v 0.400000 -0.500000 -0.750000
v 0.550000 -0.750000 -0.750000
v 0.100000 0.000000 -1.125000
v -0.050000 0.250000 -1.125000
v 0.550000 -0.750000 1.125000
v 0.400000 -0.500000 1.125000
v 0.550000 -0.750000 0.375000
v 0.400000 -0.500000 0.375000
v 0.400000 -0.500000 0.750000
v 0.550000 -0.750000 0.750000
v 0.250000 -0.250000 0.375000
v 0.100000 -0.000000 0.375000
v -0.050000 0.250000 1.125000
v -0.200000 0.500000 1.125000
v -0.200000 0.500000 0.375000
v -0.200000 0.500000 0.750000
v -0.350000 0.750000 0.375000
v -0.350000 0.750000 0.750000
v -0.050000 0.250000 0.375000
v 0.250000 -0.250000 0.750000
v 0.250000 -0.250000 -1.125000
v 0.250000 -0.250000 -0.750000
v -0.200000 0.500000 -1.125000
v -0.200000 0.500000 -0.750000
vt 0.375000 0.000000
vt 0.625000 0.000000
vt 0.625000 0.250000
vt 0.375000 0.250000
vt 0.625000 0.500000
vt 0.593750 0.500000
vt 0.562500 0.500000
vt 0.531250 0.500000
vt 0.500000 0.500000
vt 0.468750 0.500000
vt 0.437500 0.500000
vt 0.406250 0.500000
vt 0.375000 0.500000
vt 0.593750 0.718750
vt 0.625000 0.718750
vt 0.625000 0.750000
vt 0.593750 0.750000
vt 0.375000 0.750000
vt 0.406250 0.750000
vt 0.437500 0.750000
vt 0.468750 0.750000
vt 0.500000 0.750000
vt 0.531250 0.750000
vt 0.562500 0.750000
vt 0.625000 1.000000
vt 0.375000 1.000000
vt 0.125000 0.500000
vt 0.375000 0.531250
vt 0.375000 0.562500
vt 0.375000 0.593750
vt 0.375000 0.625000
vt 0.375000 0.656250
vt 0.375000 0.687500
vt 0.375000 0.718750
vt 0.125000 0.750000
vt 0.875000 0.500000
vt 0.875000 0.750000
vt 0.625000 0.687500
vt 0.625000 0.656250
vt 0.625000 0.625000
vt 0.625000 0.593750
vt 0.625000 0.562500
vt 0.625000 0.531250
vt 0.468750 0.718750
vt 0.500000 0.718750
vt 0.468750 0.593750
vt 0.500000 0.593750
vt 0.500000 0.625000
vt 0.468750 0.625000
vt 0.593750 0.593750
vt 0.593750 0.625000
vt 0.531250 0.593750
vt 0.562500 0.593750
vt 0.562500 0.625000
vt 0.531250 0.625000
vt 0.593750 0.531250
vt 0.593750 0.562500
vt 0.406250 0.593750
vt 0.437500 0.593750
vt 0.437500 0.625000
vt 0.406250 0.625000
vt 0.406250 0.531250
vt 0.437500 0.531250
vt 0.437500 0.562500
vt 0.406250 0.562500
vt 0.406250 0.718750
vt 0.437500 0.718750
vt 0.406250 0.656250
vt 0.437500 0.656250
vt 0.437500 0.687500
vt 0.406250 0.687500
vt 0.531250 0.718750
vt 0.562500 0.718750
vt 0.593750 0.656250
vt 0.593750 0.687500
vt 0.562500 0.656250
vt 0.562500 0.687500
vt 0.531250 0.656250
vt 0.500000 0.656250
vt 0.468750 0.656250
vt 0.468750 0.687500
vt 0.468750 0.531250
vt 0.468750 0.562500
vt 0.500000 0.531250
vt 0.562500 0.531250
vt 0.562500 0.562500
vt 0.531250 0.531250
vn -0.8575 -0.5145 -0.0000
vn -0.0000 0.0000 -1.0000
vn 0.8575 0.5145 0.0000
vn 0.0000 -0.0000 1.0000
vn -0.0000 -1.0000 -0.0000
vn -0.0000 1.0000 0.0000
usemtl None
s 1
f 1/1/1 2/2/1 3/3/1 4/4/1
f 4/4/2 3/3/2 5/5/2 6/6/2 7/7/2 8/8/2 9/9/2 10/10/2 11/11/2 12/12/2 13/13/2
f 14/14/3 15/15/3 16/16/3 17/17/3
f 18/18/4 19/19/4 20/20/4 21/21/4 22/22/4 23/23/4 24/24/4 17/17/4 16/16/4 2/25/4 1/26/4
f 4/27/5 13/13/5 25/28/5 26/29/5 27/30/5 28/31/5 29/32/5 30/33/5 31/34/5 18/18/5 1/35/5
f 5/5/6 3/36/6 2/37/6 16/16/6 15/15/6 32/38/6 33/39/6 34/40/6 35/41/6 36/42/6 37/43/6
f 38/44/3 39/45/3 22/22/3 21/21/3
f 40/46/3 41/47/3 42/48/3 43/49/3
f 44/50/3 35/41/3 34/40/3 45/51/3
f 46/52/3 47/53/3 48/54/3 49/55/3
f 50/56/3 37/43/3 36/42/3 51/57/3
f 52/58/3 53/59/3 54/60/3 55/61/3
f 56/62/3 57/63/3 58/64/3 59/65/3
f 62/66/3 63/67/3 20/20/3 19/19/3
f 64/68/3 65/69/3 66/70/3 67/71/3
f 70/72/3 71/73/3 24/24/3 23/23/3
f 74/74/3 33/39/3 32/38/3 75/75/3
f 72/76/3 74/74/3 75/75/3 73/77/3
f 48/54/3 45/51/3 74/74/3 72/76/3
f 45/51/3 34/40/3 33/39/3 74/74/3
f 42/48/3 49/55/3 76/78/3 69/79/3
f 49/55/3 48/54/3 72/76/3 76/78/3
f 39/45/3 70/72/3 23/23/3 22/22/3
f 65/69/3 68/80/3 77/81/3 66/70/3
f 54/60/3 43/49/3 68/80/3 65/69/3
f 43/49/3 42/48/3 69/79/3 68/80/3
f 29/32/3 64/68/3 67/71/3 30/33/3
f 28/31/3 55/61/3 64/68/3 29/32/3
f 55/61/3 54/60/3 65/69/3 64/68/3
f 31/34/3 62/66/3 19/19/3 18/18/3
f 30/33/3 67/71/3 62/66/3 31/34/3
f 67/71/3 66/70/3 63/67/3 62/66/3
f 57/63/3 78/82/3 79/83/3 58/64/3
f 11/11/3 10/10/3 78/82/3 57/63/3
f 10/10/3 9/9/3 60/84/3 78/82/3
f 25/28/3 56/62/3 59/65/3 26/29/3
f 13/13/3 12/12/3 56/62/3 25/28/3
f 12/12/3 11/11/3 57/63/3 56/62/3
f 27/30/3 52/58/3 55/61/3 28/31/3
f 26/29/3 59/65/3 52/58/3 27/30/3
f 59/65/3 58/64/3 53/59/3 52/58/3
f 80/85/3 50/56/3 51/57/3 81/86/3
f 7/7/3 6/6/3 50/56/3 80/85/3
f 6/6/3 5/5/3 37/43/3 50/56/3
f 9/9/3 8/8/3 61/87/3 60/84/3
f 8/8/3 7/7/3 80/85/3 61/87/3
f 41/47/3 46/52/3 49/55/3 42/48/3
f 47/53/3 44/50/3 45/51/3 48/54/3
f 81/86/3 51/57/3 44/50/3 47/53/3
f 51/57/3 36/42/3 35/41/3 44/50/3
f 53/59/3 40/46/3 43/49/3 54/60/3
f 58/64/3 79/83/3 40/46/3 53/59/3
f 63/67/3 38/44/3 21/21/3 20/20/3
f 66/70/3 77/81/3 38/44/3 63/67/3
f 71/73/3 14/14/3 17/17/3 24/24/3
f 73/77/3 75/75/3 14/14/3 71/73/3
f 75/75/3 32/38/3 15/15/3 14/14/3
f 41/47/3 40/46/3 79/83/3 78/82/3 60/84/3 61/87/3 80/85/3 81/86/3 47/53/3 46/52/3
f 38/44/3 77/81/3 68/80/3 69/79/3 76/78/3 72/76/3 73/77/3 71/73/3 70/72/3 39/45/3
